Coordinates
version=1
nRows=6
nColumns=36
inDegrees=yes

Units are S.I. units (second, meters, Newtons, ...)
If the header above contains a line with 'inDegrees', this indicates whether rotational values are in degrees (yes) or radians (no).

endheader
time	pelvis_tilt	pelvis_list	pelvis_rotation	pelvis_tx	pelvis_ty	pelvis_tz	hip_flexion_r	hip_adduction_r	hip_rotation_r	knee_angle_r	knee_angle_r_beta	ankle_angle_r	subtalar_angle_r	mtp_angle_r	hip_flexion_l	hip_adduction_l	hip_rotation_l	knee_angle_l	knee_angle_l_beta	ankle_angle_l	subtalar_angle_l	mtp_angle_l	lumbar_extension	lumbar_bending	lumbar_rotation	arm_flex_r	arm_add_r	arm_rot_r	elbow_flex_r	pro_sup_r	arm_flex_l	arm_add_l	arm_rot_l	elbow_flex_l	pro_sup_l
      3.00000000	     -3.49471170	      0.01972652	      4.69660354	     -0.30989444	      1.22130532	     -0.24369971	     18.73900912	     -6.90897198	     -5.85796171	     20.30372085	      0.35436678	      6.81513857	      7.39109155	     -7.49999987	     18.62631997	     -7.30181204	     -4.42737074	     16.56562106	      0.28912463	    -11.92632311	     -7.16260960	     -7.49999987	    -17.14473131	     -1.29726651	      4.51759103	    -62.15064725	    -43.89817773	    -60.25205332	     16.07579610	     94.74106238	    -61.72443508	    -14.39245292	    -54.76868324	     66.38736207	     98.20993044
      3.01666670	     -3.39702653	     -0.08565800	      4.35159515	     -0.29141362	      1.17926921	     -0.25215806	     19.53810015	     -6.86844433	     -5.64397045	     19.01689516	      0.33190743	      6.00161834	      8.78787701	     -7.49999987	     20.08321030	     -7.54846530	     -3.91199238	     16.28826967	      0.28428394	    -12.93047896	     -8.13101817	     -7.49999987	    -17.27906004	     -1.03087521	      5.94548577	    -70.97523186	    -42.21578691	    -61.77406633	     18.28007153	     95.30054571	    -64.27003242	    -16.22661577	    -55.51194299	     64.89995706	     97.75811090
      3.03333330	     -3.05694671	     -0.44296721	      3.96092409	     -0.26906170	      1.13963239	     -0.25626436	     19.78492116	     -6.44369781	     -5.43082007	     17.69178500	      0.30877990	      5.27752728	      9.66029451	     -7.49999987	     21.10464159	     -8.06318742	     -3.19004697	     16.02797795	      0.27974099	    -13.45192184	     -9.76402769	     -7.49999987	    -17.11729026	     -0.22652505	      7.31335431	    -82.69348184	    -40.13315610	    -54.60555077	     24.14967561	     93.28047898	    -65.60793170	    -17.41248315	    -57.21520286	     62.33146868	     98.00352500
      3.05000000	     -1.94885441	     -0.50378198	      3.33307592	     -0.24794529	      1.11407380	     -0.26090555	     19.36119358	     -6.19226725	     -4.80673906	     16.80825726	      0.29335943	      4.24402307	      9.41354165	     -7.49999987	     20.80397343	     -8.44846473	     -3.09667475	     16.08938663	      0.28081277	    -14.05282235	    -10.72112396	     -7.49999987	    -17.45107090	     -0.33831921	      8.94434756	    -86.92897334	    -39.02203739	    -49.66081130	     24.26122578	     82.32772047	    -64.72486515	    -17.77491187	    -60.59665806	     58.53468153	     98.55778103
      3.06666670	     -0.83179767	     -0.46545626	      3.09571613	     -0.24069377	      1.07323534	     -0.25575366	     19.42456811	     -6.06496857	     -4.38631229	     16.82329846	      0.29362195	      3.01545973	      8.83851772	     -7.49999987	     21.10788586	     -8.83747423	     -3.26324652	     16.68646748	      0.29123380	    -14.49337349	    -11.06678926	     -7.49999987	    -19.57573885	     -0.84085776	      9.91769842	    -90.52396473	    -36.74052289	    -47.64387466	     26.59544339	     82.44641126	    -62.40311323	    -17.95854241	    -65.09700365	     55.49128761	     98.02630188
      3.08333330	      0.27079010	     -0.43144226	      2.99143580	     -0.22312894	      1.04274118	     -0.25171117	     19.60756530	     -5.99675097	     -5.32472644	     16.77627199	      0.29280118	      2.64604851	      8.52756351	     -7.49999987	     21.20340631	     -9.19862383	     -3.64436856	     16.83380941	      0.29380540	    -15.00916717	    -11.04321846	     -7.49999987	    -20.93454520	     -1.29364817	     10.65922405	    -88.76691524	    -33.88704113	    -47.28130441	     23.65205447	     82.54373351	    -57.17039410	    -19.52410824	    -69.98050246	     48.58726054	     98.08726003
